<svg width="28" height="28" viewBox="0 0 28 28" fill="none" xmlns="http://www.w3.org/2000/svg">
<path d="M3.47873 8.52832C4.42392 6.64734 5.87338 5.06612 7.66524 3.96124C9.4571 2.85637 11.5208 2.27134 13.6259 2.27148C16.6862 2.27148 19.2571 3.39681 21.2227 5.22957L17.9671 8.48631C16.7896 7.36098 15.2929 6.78754 13.6259 6.78754C10.6678 6.78754 8.16397 8.78609 7.27257 11.4694C7.04546 12.1507 6.91601 12.8774 6.91601 13.6269C6.91601 14.3764 7.04546 15.1031 7.27257 15.7844C8.16511 18.4689 10.6678 20.4663 13.6259 20.4663C15.1532 20.4663 16.4534 20.0632 17.4709 19.3818C18.0607 18.9935 18.5657 18.4896 18.9553 17.9005C19.3448 17.3115 19.6109 16.6496 19.7374 15.9548H13.6259V11.5625H24.3205C24.4545 12.3051 24.5271 13.0796 24.5271 13.8847C24.5271 17.3435 23.2894 20.2551 21.1409 22.2309C19.2628 23.966 16.6919 24.9823 13.6259 24.9823C12.1345 24.9829 10.6577 24.6896 9.27969 24.1192C7.90172 23.5487 6.64967 22.7123 5.5951 21.6577C4.54054 20.6032 3.70412 19.3511 3.13367 17.9731C2.56322 16.5952 2.26991 15.1183 2.27051 13.6269C2.27051 11.7941 2.70883 10.0613 3.47873 8.52832Z" fill="white"/>
</svg>
