<svg width="28" height="28" viewBox="0 0 28 28" fill="none" xmlns="http://www.w3.org/2000/svg">
<g clip-path="url(#clip0_56_2)">
<path d="M10.4365 15.8636V7.68774L16.7899 4.01994C20.3101 1.98732 26.6123 7.00073 23.9665 11.5883" stroke="white" stroke-width="1.70331" stroke-linejoin="round"/>
<path d="M10.4365 11.8897L17.5166 7.80176L23.87 11.4696C27.3902 13.5022 26.1978 21.468 20.9005 21.468" stroke="white" stroke-width="1.70331" stroke-linejoin="round"/>
<path d="M13.8767 9.90234L20.9568 13.9903V21.3316C20.9568 25.3968 13.4622 28.3492 10.8164 23.7616" stroke="white" stroke-width="1.70331" stroke-linejoin="round"/>
<path d="M17.3178 12.0371V20.0654L10.9644 23.7332C7.44425 25.7658 1.14199 20.7524 3.7878 16.1648" stroke="white" stroke-width="1.70331" stroke-linejoin="round"/>
<path d="M17.3168 15.8644L10.2367 19.9524L3.88337 16.2846C0.357513 14.2463 1.54983 6.28613 6.84714 6.28613" stroke="white" stroke-width="1.70331" stroke-linejoin="round"/>
<path d="M13.877 17.8512L6.79688 13.7632V6.42193C6.79688 2.35669 14.2915 -0.595724 16.9373 3.99187" stroke="white" stroke-width="1.70331" stroke-linejoin="round"/>
</g>
<defs>
<clipPath id="clip0_56_2">
<rect width="27.253" height="27.253" fill="white"/>
</clipPath>
</defs>
</svg>
