<svg width="28" height="28" viewBox="0 0 28 28" fill="none" xmlns="http://www.w3.org/2000/svg">
<path d="M12.4906 23.8458V19.206L8.18348 23.5131C8.02467 23.6719 7.82236 23.78 7.60211 23.8238C7.38187 23.8676 7.15359 23.8451 6.94613 23.7591C6.73866 23.6732 6.56133 23.5277 6.43656 23.341C6.31178 23.1543 6.24515 22.9348 6.24511 22.7103V19.3036H4.54179C4.24063 19.3036 3.9518 19.184 3.73884 18.971C3.52589 18.7581 3.40625 18.4693 3.40625 18.1681V9.65153C3.40625 9.35037 3.52589 9.06154 3.73884 8.84858C3.9518 8.63563 4.24063 8.51599 4.54179 8.51599H6.24511V4.54159C6.24514 4.32668 6.30616 4.11618 6.42108 3.93457C6.53599 3.75296 6.70009 3.6077 6.89429 3.51565C7.0885 3.4236 7.30484 3.38855 7.51817 3.41458C7.7315 3.44061 7.93307 3.52664 8.09945 3.66268L12.4906 7.25554V3.40605C12.4906 3.10489 12.6102 2.81606 12.8232 2.6031C13.0361 2.39014 13.325 2.27051 13.6261 2.27051C13.9273 2.27051 14.2161 2.39014 14.4291 2.6031C14.642 2.81606 14.7617 3.10489 14.7617 3.40605V7.25554L19.1528 3.66268C19.3192 3.52664 19.5208 3.44061 19.7341 3.41458C19.9474 3.38855 20.1638 3.4236 20.358 3.51565C20.5522 3.6077 20.7163 3.75296 20.8312 3.93457C20.9461 4.11618 21.0071 4.32668 21.0072 4.54159V8.51599H22.7105C23.0116 8.51599 23.3005 8.63563 23.5134 8.84858C23.7264 9.06154 23.846 9.35037 23.846 9.65153V18.1681C23.846 18.4693 23.7264 18.7581 23.5134 18.971C23.3005 19.184 23.0116 19.3036 22.7105 19.3036H21.0072V22.7103C21.0071 22.9348 20.9405 23.1543 20.8157 23.341C20.6909 23.5277 20.5136 23.6732 20.3061 23.7591C20.0987 23.8451 19.8704 23.8676 19.6501 23.8238C19.4299 23.78 19.2276 23.6719 19.0688 23.5131L14.7617 19.206V23.8458C14.7617 24.147 14.642 24.4358 14.4291 24.6488C14.2161 24.8617 13.9273 24.9814 13.6261 24.9814C13.325 24.9814 13.0361 24.8617 12.8232 24.6488C12.6102 24.4358 12.4906 24.147 12.4906 23.8458ZM8.51619 16.3671V19.9691L12.4906 15.9947V12.3927L8.51619 16.3671ZM14.7617 15.9947L18.7361 19.9691V16.3671L14.7617 12.3927V15.9947ZM20.6744 15.0942C20.8874 15.3071 21.0071 15.5959 21.0072 15.897V17.0326H21.5749V10.7871H16.3673L20.6744 15.0942ZM5.67733 17.0326H6.24511V15.897C6.24517 15.5959 6.36485 15.3071 6.57782 15.0942L10.8849 10.7871H5.67733V17.0326ZM16.8079 8.51599H18.7361V6.93759L16.8079 8.51599ZM8.51619 8.51599H10.4443L8.51619 6.93759V8.51599Z" fill="white"/>
</svg>
